<?xml version="1.0" encoding="UTF-8" standalone="no"?>
<!-- Generator: Adobe Illustrator 18.1.1, SVG Export Plug-In . SVG Version: 6.00 Build 0)  -->

<svg
   xmlns:dc="http://purl.org/dc/elements/1.1/"
   xmlns:cc="http://creativecommons.org/ns#"
   xmlns:rdf="http://www.w3.org/1999/02/22-rdf-syntax-ns#"
   xmlns:svg="http://www.w3.org/2000/svg"
   xmlns="http://www.w3.org/2000/svg"
   xmlns:sodipodi="http://sodipodi.sourceforge.net/DTD/sodipodi-0.dtd"
   xmlns:inkscape="http://www.inkscape.org/namespaces/inkscape"
   version="1.1"
   id="Capa_1"
   x="0px"
   y="0px"
   viewBox="0 0 37.066 37.066"
   style="enable-background:new 0 0 37.066 37.066;"
   xml:space="preserve"
   inkscape:version="0.48.2 r9819"
   width="100%"
   height="100%"
   sodipodi:docname="gallery.svg"><metadata
   id="metadata47"><rdf:RDF><cc:Work
       rdf:about=""><dc:format>image/svg+xml</dc:format><dc:type
         rdf:resource="http://purl.org/dc/dcmitype/StillImage" /></cc:Work></rdf:RDF></metadata><defs
   id="defs45" /><sodipodi:namedview
   pagecolor="#ffffff"
   bordercolor="#666666"
   borderopacity="1"
   objecttolerance="10"
   gridtolerance="10"
   guidetolerance="10"
   inkscape:pageopacity="0"
   inkscape:pageshadow="2"
   inkscape:window-width="832"
   inkscape:window-height="705"
   id="namedview43"
   showgrid="false"
   inkscape:zoom="6.367021"
   inkscape:cx="18.533"
   inkscape:cy="18.533"
   inkscape:window-x="0"
   inkscape:window-y="0"
   inkscape:window-maximized="0"
   inkscape:current-layer="g3" />
<g
   id="g3">
	<path
   style="fill:#ffffff"
   d="M36.785,12.556L15.787,2.525c-0.244-0.118-0.539-0.016-0.654,0.227l-4.57,9.565h2.49l3.354-7.028   l18.205,8.696L28.919,25.9l-3.205-1.53v6.299l1.971,0.941c0.246,0.119,0.537,0.012,0.654-0.232l8.678-18.171   C37.135,12.965,37.031,12.672,36.785,12.556z"
   id="path5" />
	<path
   style="fill:#ffffff"
   d="M23.764,13.472H0.492C0.223,13.472,0,13.691,0,13.96v20.139c0,0.27,0.223,0.491,0.492,0.491h23.271   c0.271,0,0.492-0.221,0.492-0.491V13.96C24.256,13.691,24.035,13.472,23.764,13.472z M22.42,28.906h-1.475   c-0.859-2.203-1.916-5.287-3.521-4.875c-1.881,0.48-2.82,4.875-2.82,4.875s-0.963-4.959-3.617-7.614   c-2.655-2.655-5.227,7.614-5.227,7.614H2.246V15.699H22.42V28.906z"
   id="path7" />
	<circle
   style="fill:#ffffff"
   cx="5.502"
   cy="18.533"
   r="1.646"
   id="circle9" />
	<path
   style="fill:#ffffff"
   d="M16.545,19.695c0.369,0,0.715-0.039,1.023-0.1c0.359,0.152,0.797,0.245,1.268,0.245   c1.215,0,2.197-0.593,2.197-1.325c0-0.73-0.982-1.323-2.197-1.323c-0.455,0-0.877,0.083-1.227,0.228   c-0.145-0.141-0.338-0.228-0.553-0.228h-0.318c-0.408,0-0.729,0.309-0.775,0.702c-0.982,0.103-1.713,0.459-1.713,0.883   C14.25,19.284,15.277,19.695,16.545,19.695z"
   id="path11" />
</g>
<g
   id="g13">
</g>
<g
   id="g15">
</g>
<g
   id="g17">
</g>
<g
   id="g19">
</g>
<g
   id="g21">
</g>
<g
   id="g23">
</g>
<g
   id="g25">
</g>
<g
   id="g27">
</g>
<g
   id="g29">
</g>
<g
   id="g31">
</g>
<g
   id="g33">
</g>
<g
   id="g35">
</g>
<g
   id="g37">
</g>
<g
   id="g39">
</g>
<g
   id="g41">
</g>
</svg>