<?xml version="1.0" encoding="UTF-8" standalone="no"?>
<!-- Generator: Adobe Illustrator 18.0.0, SVG Export Plug-In . SVG Version: 6.00 Build 0)  -->

<svg
   xmlns:dc="http://purl.org/dc/elements/1.1/"
   xmlns:cc="http://creativecommons.org/ns#"
   xmlns:rdf="http://www.w3.org/1999/02/22-rdf-syntax-ns#"
   xmlns:svg="http://www.w3.org/2000/svg"
   xmlns="http://www.w3.org/2000/svg"
   xmlns:sodipodi="http://sodipodi.sourceforge.net/DTD/sodipodi-0.dtd"
   xmlns:inkscape="http://www.inkscape.org/namespaces/inkscape"
   version="1.1"
   id="Capa_1"
   x="0px"
   y="0px"
   viewBox="0 0 490 490"
   style="enable-background:new 0 0 490 490;"
   xml:space="preserve"
   inkscape:version="0.48.2 r9819"
   width="100%"
   height="100%"
   sodipodi:docname="girl.svg"><metadata
   id="metadata49"><rdf:RDF><cc:Work
       rdf:about=""><dc:format>image/svg+xml</dc:format><dc:type
         rdf:resource="http://purl.org/dc/dcmitype/StillImage" /></cc:Work></rdf:RDF></metadata><defs
   id="defs47" /><sodipodi:namedview
   pagecolor="#ffffff"
   bordercolor="#666666"
   borderopacity="1"
   objecttolerance="10"
   gridtolerance="10"
   guidetolerance="10"
   inkscape:pageopacity="0"
   inkscape:pageshadow="2"
   inkscape:window-width="640"
   inkscape:window-height="480"
   id="namedview45"
   showgrid="false"
   inkscape:zoom="0.48163265"
   inkscape:cx="245"
   inkscape:cy="245"
   inkscape:window-x="0"
   inkscape:window-y="0"
   inkscape:window-maximized="0"
   inkscape:current-layer="Capa_1" />
<g
   id="g3"
   style="fill:#ffffff">
	<path
   d="M282.933,294.437c-4.729-2.852-10.876-1.332-13.728,3.398c-2.807,4.655-11.579,9.665-24.204,9.665   s-21.398-5.01-24.204-9.665c-2.853-4.729-8.996-6.253-13.729-3.398c-4.729,2.853-6.25,8.998-3.398,13.728   C210.754,319.911,226.977,327.5,245,327.5c18.023,0,34.246-7.589,41.331-19.335C289.183,303.435,287.661,297.29,282.933,294.437z"
   id="path5"
   style="fill:#ffffff" />
	<path
   d="M334.483,381.032c-56.519,26.61-122.448,26.61-178.967,0C124.063,406.892,104,446.102,104,490h282   C386,446.102,365.938,406.892,334.483,381.032z"
   id="path7"
   style="fill:#ffffff" />
	<circle
   cx="167.868"
   cy="213.466"
   r="20.132"
   id="circle9"
   style="fill:#ffffff" />
	<circle
   cx="322.132"
   cy="213.466"
   r="20.132"
   id="circle11"
   style="fill:#ffffff" />
	<path
   d="M428.268,242.667c4.71-16.579,7.232-34.078,7.232-52.167C435.5,85.29,350.21,0,245,0C139.79,0,54.5,85.29,54.5,190.5   c0,18.088,2.521,35.588,7.231,52.167C50.524,279.511,29.268,312.983,0,338.914c48.786,26.77,104.147,32.377,154.796,19.41   C181.647,372.787,212.364,381,245,381c32.636,0,63.353-8.213,90.204-22.676c50.648,12.967,106.01,7.359,154.796-19.41   C460.731,312.983,439.475,279.511,428.268,242.667z M245,361c-94.164,0-170.5-76.335-170.5-170.5   c0-19.271,3.201-37.794,9.095-55.071c102.121,56.46,220.689,56.46,322.811-0.001c5.893,17.277,9.095,35.8,9.095,55.071   C415.5,284.665,339.164,361,245,361z"
   id="path13"
   style="fill:#ffffff" />
</g>
<g
   id="g15">
</g>
<g
   id="g17">
</g>
<g
   id="g19">
</g>
<g
   id="g21">
</g>
<g
   id="g23">
</g>
<g
   id="g25">
</g>
<g
   id="g27">
</g>
<g
   id="g29">
</g>
<g
   id="g31">
</g>
<g
   id="g33">
</g>
<g
   id="g35">
</g>
<g
   id="g37">
</g>
<g
   id="g39">
</g>
<g
   id="g41">
</g>
<g
   id="g43">
</g>
</svg>