<?xml version="1.0" encoding="UTF-8" standalone="no"?>
<!-- Generator: Adobe Illustrator 18.0.0, SVG Export Plug-In . SVG Version: 6.00 Build 0)  -->

<svg
   xmlns:dc="http://purl.org/dc/elements/1.1/"
   xmlns:cc="http://creativecommons.org/ns#"
   xmlns:rdf="http://www.w3.org/1999/02/22-rdf-syntax-ns#"
   xmlns:svg="http://www.w3.org/2000/svg"
   xmlns="http://www.w3.org/2000/svg"
   xmlns:sodipodi="http://sodipodi.sourceforge.net/DTD/sodipodi-0.dtd"
   xmlns:inkscape="http://www.inkscape.org/namespaces/inkscape"
   version="1.1"
   id="Capa_1"
   x="0px"
   y="0px"
   viewBox="0 0 307.308 307.308"
   style="enable-background:new 0 0 307.308 307.308;"
   xml:space="preserve"
   inkscape:version="0.48.2 r9819"
   width="100%"
   height="100%"
   sodipodi:docname="photo.svg"><metadata
   id="metadata42"><rdf:RDF><cc:Work
       rdf:about=""><dc:format>image/svg+xml</dc:format><dc:type
         rdf:resource="http://purl.org/dc/dcmitype/StillImage" /></cc:Work></rdf:RDF></metadata><defs
   id="defs40" /><sodipodi:namedview
   pagecolor="#ffffff"
   bordercolor="#666666"
   borderopacity="1"
   objecttolerance="10"
   gridtolerance="10"
   guidetolerance="10"
   inkscape:pageopacity="0"
   inkscape:pageshadow="2"
   inkscape:window-width="640"
   inkscape:window-height="480"
   id="namedview38"
   showgrid="false"
   inkscape:zoom="0.76795918"
   inkscape:cx="153.654"
   inkscape:cy="153.654"
   inkscape:window-x="0"
   inkscape:window-y="0"
   inkscape:window-maximized="0"
   inkscape:current-layer="Capa_1" />
<g
   id="_x31_1-DSLR_Camera"
   style="fill:#ffffff">
	<path
   d="M284.909,66.146h-81.345l-16.426-27.595c-1.607-2.698-4.514-4.351-7.654-4.351h-51.662c-3.14,0-6.048,1.653-7.654,4.351   l-16.426,27.595H77.049v-6.082c0-4.919-3.988-8.907-8.907-8.907H35.185c-4.92,0-8.907,3.988-8.907,8.907v6.082h-3.88   C10.027,66.146,0,76.174,0,88.543v162.166c0,12.37,10.027,22.398,22.397,22.398h262.512c12.37,0,22.398-10.028,22.398-22.398   V88.543C307.308,76.174,297.279,66.146,284.909,66.146z M153.653,233.379c-35.21,0-63.753-28.543-63.753-63.754   c0-35.209,28.543-63.753,63.753-63.753c35.21,0,63.753,28.544,63.753,63.753C217.406,204.836,188.863,233.379,153.653,233.379z    M270.935,112.322h-27.91c-4.919,0-8.907-3.988-8.907-8.908c0-4.92,3.988-8.908,8.907-8.908h27.91c4.921,0,8.908,3.988,8.908,8.908   C279.843,108.334,275.855,112.322,270.935,112.322z"
   id="path4"
   style="fill:#ffffff" />
	<circle
   cx="153.653"
   cy="169.625"
   r="44.538"
   id="circle6"
   style="fill:#ffffff" />
</g>
<g
   id="g8">
</g>
<g
   id="g10">
</g>
<g
   id="g12">
</g>
<g
   id="g14">
</g>
<g
   id="g16">
</g>
<g
   id="g18">
</g>
<g
   id="g20">
</g>
<g
   id="g22">
</g>
<g
   id="g24">
</g>
<g
   id="g26">
</g>
<g
   id="g28">
</g>
<g
   id="g30">
</g>
<g
   id="g32">
</g>
<g
   id="g34">
</g>
<g
   id="g36">
</g>
</svg>